<svg xmlns="http://www.w3.org/2000/svg" width="594" height="594" viewBox="0 0 594 594">
  <g id="Group_3" data-name="Group 3" transform="translate(-810 -893)">
    <g id="Group_2" data-name="Group 2">
      <g id="Ellipse_1" data-name="Ellipse 1" transform="translate(810 893)" fill="none" stroke="#fff" stroke-width="40">
        <circle cx="297" cy="297" r="297" stroke="none"/>
        <circle cx="297" cy="297" r="277" fill="none"/>
      </g>
    </g>
    <path id="Path_6" data-name="Path 6" d="M321.028,104.852l-.064-47.526L233.261,0V36.668l57.846,38.09.046,29.192-26.876,18.2-18.334-13.374V86.117l-29.876-20.44v41.235l-47.361,29.064-.091,76.763-33.486,18.853-17.185-13.465V195.9l20.349-13.94v-34.58L101.67,171.887l-28-18.215L48.1,170.419l39.959,27.359v16.793l-28.8,19.492L29.876,214.171V147.965L73.5,118.436l.036-28.408,55.949,36.029,47.024-31.3L147.837,78.03,129.084,90.684,88.223,63.662,134.3,36.8l39.922,23.4V25.3L134.344,1.924,43.706,54.773l-.064,47.544L0,131.874v98.388l43.642,29.557.064,47.544,87.7,57.308V328.03L73.563,289.94l-.046-29.192,26.876-18.2,18.334,13.374V278.58L148.6,299.011V257.776l48.036-29.055.538-76.772L229.541,133.1l17.185,13.465v22.227l-20.349,13.939v34.589L263,192.8l28,18.215,25.572-16.747L276.6,166.891V150.116l28.809-19.482,29.383,19.893v66.2L291.18,246.261l-.046,28.4-55.949-36.048-47.024,31.1,28.672,16.7L235.586,274l40.861,27.022-46.076,26.867-39.922-23.4v34.881l39.877,23.375,90.639-52.822.064-47.553,43.642-29.556V134.408Z" transform="translate(924.665 1007.665)" fill="#fff"/>
  </g>
</svg>
