<svg xmlns="http://www.w3.org/2000/svg" width="341" height="341" viewBox="0 0 341 341">
  <g id="Group_1" data-name="Group 1" transform="translate(341 66)">
    <g id="news" transform="translate(-267.214 6.335)">
      <path id="Path_1" data-name="Path 1" d="M153.1,39.324V63.841h4.9V186.427a4.918,4.918,0,0,1-4.9,4.9H30.517A24.526,24.526,0,0,1,6,166.814V29.517A24.526,24.526,0,0,1,30.517,5H133.49a24.526,24.526,0,0,1,24.517,24.517v9.807Z" fill="#fff"/>
      <path id="Path_2" data-name="Path 2" d="M164.007,41.517v4.9h-4.9v78.455a14.691,14.691,0,0,1-14.71,14.71v4.9H36.517A24.526,24.526,0,0,1,12,119.972V41.517A24.526,24.526,0,0,1,36.517,17H139.49A24.526,24.526,0,0,1,164.007,41.517Z" transform="translate(23.421 46.841)" fill="#fff"/>
      <path id="Path_3" data-name="Path 3" d="M99.262,29.807H15.9A4.9,4.9,0,0,1,15.9,20H99.262a4.9,4.9,0,1,1,0,9.807Z" transform="translate(19.517 58.552)" fill="#d4d4d4"/>
      <path id="Path_4" data-name="Path 4" d="M99.262,23.807H15.9A4.9,4.9,0,1,1,15.9,14H99.262a4.9,4.9,0,1,1,0,9.807Z" transform="translate(19.517 35.131)" fill="#d4d4d4"/>
      <path id="Path_5" data-name="Path 5" d="M52.421,42.807H27.9A4.9,4.9,0,1,1,27.9,33H52.421a4.9,4.9,0,0,1,0,9.807Z" transform="translate(66.359 109.296)" fill="#d4d4d4"/>
      <path id="Path_6" data-name="Path 6" d="M52.421,36.807H27.9A4.9,4.9,0,0,1,27.9,27H52.421a4.9,4.9,0,0,1,0,9.807Z" transform="translate(66.359 85.876)" fill="#d4d4d4"/>
      <path id="Path_7" data-name="Path 7" d="M45.324,75.034H20.807C15.4,75.034,11,70.322,11,64.526V36.508C11,30.712,15.4,26,20.807,26H45.324c5.409,0,9.807,4.712,9.807,10.508V64.526C55.131,70.322,50.733,75.034,45.324,75.034ZM20.851,35.807c.123.02-.044.265-.044.7V64.526a1.025,1.025,0,0,0,.255.765l24.218-.064c-.123-.02.044-.265.044-.7V36.508a1.025,1.025,0,0,0-.255-.765Z" transform="translate(19.517 81.972)" fill="#d4d4d4"/>
      <path id="Path_8" data-name="Path 8" d="M54.614,167.91A19.634,19.634,0,0,1,35,148.3V15.9a4.9,4.9,0,0,1,9.807,0V148.3a9.807,9.807,0,1,0,19.614,0V69.841a4.9,4.9,0,0,1,9.807,0V148.3A19.634,19.634,0,0,1,54.614,167.91Z" transform="translate(113.2 23.421)" fill="#d4d4d4"/>
    </g>
    <g id="Ellipse_1" data-name="Ellipse 1" transform="translate(-341 -66)" fill="none" stroke="#fff" stroke-width="20">
      <circle cx="170.5" cy="170.5" r="170.5" stroke="none"/>
      <circle cx="170.5" cy="170.5" r="160.5" fill="none"/>
    </g>
  </g>
</svg>
