<svg xmlns="http://www.w3.org/2000/svg" width="33" height="33" viewBox="0 0 33 33">
  <g id="Group_2" data-name="Group 2" transform="translate(-125 -76)">
    <g id="Group_1" data-name="Group 1" transform="translate(1 -4)">
      <g id="shop-svgrepo-com" transform="translate(130.073 85.874)">
        <path id="Path_1" data-name="Path 1" d="M9.387,2h4.157l.542,5.419a2.633,2.633,0,1,1-5.241,0Z" transform="translate(-1.039)" fill="none" stroke="#fff" stroke-width="1.5"/>
        <path id="Path_2" data-name="Path 2" d="M3.219,4.786a5.907,5.907,0,0,1,.373-1.41,2.494,2.494,0,0,1,1.57-1.287A5.907,5.907,0,0,1,6.617,2H8.349l-.6,6.024a2.543,2.543,0,1,1-5.025-.752Z" transform="translate(0)" fill="none" stroke="#fff" stroke-width="1.5"/>
        <path id="Path_3" data-name="Path 3" d="M19.63,4.786a5.909,5.909,0,0,0-.373-1.41,2.494,2.494,0,0,0-1.57-1.287A5.907,5.907,0,0,0,16.231,2H14.5l.6,6.024a2.543,2.543,0,1,0,5.025-.752Z" transform="translate(-1.994)" fill="none" stroke="#fff" stroke-width="1.5"/>
        <path id="Path_4" data-name="Path 4" d="M7.738,19.73a.624.624,0,1,0,1.247,0Zm4.157,0a.624.624,0,1,0,1.247,0Zm0-4.406.312-.54Zm.456.456-.54.312h0Zm-3.823,0,.54.312Zm.456-.456.312.54Zm1.871,4.2h-.831v1.247h.831ZM4,13.494V11H2.75v2.494ZM16.884,11v2.494h1.247V11Zm-6.859,8.522a29.918,29.918,0,0,1-3.566-.116,2.7,2.7,0,0,1-1.67-.675l-.882.882a3.917,3.917,0,0,0,2.386,1.029,30.839,30.839,0,0,0,3.732.127ZM2.75,13.494a30.834,30.834,0,0,0,.127,3.732,3.917,3.917,0,0,0,1.029,2.386l.882-.882a2.7,2.7,0,0,1-.675-1.67A29.925,29.925,0,0,1,4,13.494Zm8.106,7.275a30.839,30.839,0,0,0,3.732-.127,3.917,3.917,0,0,0,2.386-1.029l-.882-.882a2.7,2.7,0,0,1-1.67.675,29.919,29.919,0,0,1-3.566.116Zm6.028-7.275a29.919,29.919,0,0,1-.116,3.566,2.7,2.7,0,0,1-.675,1.67l.882.882A3.917,3.917,0,0,0,18,17.226a30.839,30.839,0,0,0,.127-3.732Zm-7.9,6.236V17.236H7.738V19.73Zm2.91-2.494V19.73h1.247V17.236ZM10.44,15.781c.4,0,.658,0,.854.018a.7.7,0,0,1,.289.065l.624-1.08a1.9,1.9,0,0,0-.8-.227c-.265-.024-.59-.023-.967-.023Zm2.7,1.455c0-.377,0-.7-.023-.967a1.9,1.9,0,0,0-.227-.8l-1.08.624a.7.7,0,0,1,.065.289c.018.2.018.454.018.854Zm-1.559-1.371a.623.623,0,0,1,.228.228l1.08-.624a1.872,1.872,0,0,0-.685-.685Zm-2.6,1.371c0-.4,0-.658.018-.854a.7.7,0,0,1,.065-.289l-1.08-.624a1.9,1.9,0,0,0-.227.8c-.024.265-.023.59-.023.967Zm1.455-2.7c-.377,0-.7,0-.967.023a1.9,1.9,0,0,0-.8.227l.624,1.08a.7.7,0,0,1,.289-.065c.2-.018.454-.018.854-.018ZM9.069,16.092a.623.623,0,0,1,.228-.228l-.624-1.08a1.871,1.871,0,0,0-.685.685Z" transform="translate(-0.013 -1.517)" fill="#fff"/>
      </g>
      <g id="Path_5" data-name="Path 5" transform="translate(124 80)" fill="none">
        <path d="M16.5,0A16.5,16.5,0,1,1,0,16.5,16.5,16.5,0,0,1,16.5,0Z" stroke="none"/>
        <path d="M 16.5 2 C 12.62690925598145 2 8.985639572143555 3.508260726928711 6.246950149536133 6.246950149536133 C 3.508260726928711 8.985639572143555 2 12.62690925598145 2 16.5 C 2 20.37308883666992 3.508260726928711 24.01436042785645 6.246950149536133 26.75304985046387 C 8.985639572143555 29.49173927307129 12.62690925598145 31 16.5 31 C 20.37308883666992 31 24.01436042785645 29.49173927307129 26.75304985046387 26.75304985046387 C 29.49173927307129 24.01436042785645 31 20.37308883666992 31 16.5 C 31 12.62690925598145 29.49173927307129 8.985639572143555 26.75304985046387 6.246950149536133 C 24.01436042785645 3.508260726928711 20.37308883666992 2 16.5 2 M 16.5 0 C 25.61269950866699 0 33 7.387300491333008 33 16.5 C 33 25.61269950866699 25.61269950866699 33 16.5 33 C 7.387300491333008 33 0 25.61269950866699 0 16.5 C 0 7.387300491333008 7.387300491333008 0 16.5 0 Z" stroke="none" fill="#fff"/>
      </g>
    </g>
  </g>
</svg>
